# xmcd
#
# Track frame offsets:
#	150
#	22719
#	44578
#	68889
#	92518
#	117679
#	142186
#	162317
#	185514
#	206650
#	227575
#	249184
#	266443
#
# Disc length: 3893 seconds
#
# Revision: 0
# Processed by: cddbd v1.5.2PL0 Copyright (c) Steve Scherf et al.
# Submitted via: audiograbber 1.83.01
#
DISCID=b30f330d
DTITLE=38 Special - Bone Against Steel
DYEAR=1991
DGENRE=Southern Rock
TTITLE0=The Sound Of Your Voice
TTITLE1=Signs Of Love
TTITLE2=Last Thing I Ever Do
TTITLE3=You Definitely Got Me
TTITLE4=Rebel To Rebel
TTITLE5=Bone Against Steel
TTITLE6=You Be The Damn, I'll Be The Water
TTITLE7=Jimmy Gillum
TTITLE8=Tear It Up
TTITLE9=Don't Wanna Get It Dirty
TTITLE10=Burning Bridges
TTITLE11=Can't Shake It
TTITLE12=Treasure
EXTD=
EXTT0=
EXTT1=
EXTT2=
EXTT3=
EXTT4=
EXTT5=
EXTT6=
EXTT7=
EXTT8=
EXTT9=
EXTT10=
EXTT11=
EXTT12=
PLAYORDER=
